<?xml version="1.0" encoding="iso-8859-1"?>
<!DOCTYPE svg PUBLIC "-//W3C//DTD SVG 1.0//EN" "http://www.w3.org/TR/2001/REC-SVG-20010904/DTD/svg10.dtd">
<!-- Creator: CorelDRAW -->
<?xml-stylesheet href="LogoRecorte.css" type="text/css"?>
<svg xmlns="http://www.w3.org/2000/svg" xmlns:odm="http://product.corel.com/CGS/11/cddns/" xml:space="preserve" width="8.5in" height="11in" style="shape-rendering:geometricPrecision; text-rendering:geometricPrecision; image-rendering:optimizeQuality; fill-rule:evenodd"
    viewBox="0 0 8500 11000">
<g id="Capa 1">
<path class="fil0" d="M4185 6312c-997,0 -1809,-813 -1809,-1809 0,-997 812,-1810 1809,-1810 996,0 1809,813 1809,1810 0,996 -813,1809 -1809,1809zm710 -1012c121,-81 247,-145 376,-192 -10,-116 -15,-234 -11,-357l113 -69c44,-349 120,-735 226,-1154l-497 318 0 -113c-403,292 -687,549 -804,770 159,302 352,566 597,797zm-1427 -1c-121,-82 -247,-146 -376,-192 10,-116 15,-235 11,-358l-113 -68c-44,-350 -120,-736 -226,-1155l497 318 0 -113c403,292 687,549 804,771 -159,302 -352,565 -597,797zm-43 198l756 -928 759 926 -335 7 -414 -502 -428 495 -338 2z"/>
</g>
</svg>
